@startuml

left to right direction

class Zimmer{
    nummer: int
    personen: int
}
class Kategorie{
    id: int
    bezeichnung: String
}
class Mitarbeiter{
    -svnr: String
    -name: String
    -adresse: String
}
class Raumpfleger{

}
class Betreuer{
    -fach: String
}
class Kunde{
    -kundennr: int
    -name: String
    -adresse: String
}
class Buchung{
    -von: LocalDate
    -bis: LocalDate
}
class Leistungspaket{
    -bezeichnung: String
    -preis: int
    -anzahl: int
}

Kategorie"1"<--"*"Zimmer
Mitarbeiter--|>Betreuer
Mitarbeiter-r-|>Raumpfleger
Raumpfleger-r-Zimmer
Kunde"1"<--"*"Buchung
Zimmer"1"<--"*"Buchung
(Raumpfleger,Zimmer)..Putzen
Leistungspaket--|>Basispaket
Leistungspaket--|>Luxuspaket
Luxuspaket"1"<-r-"1..*"Basispaket
Buchung<--Leistungspaket
(Buchung,Leistungspaket)..Pakete
Leistungspaket-->Betreuer
(Leistungspaket,Betreuer)..Leistungsbetruer


@enduml